{"title":"Carrie.2013.READNFO.CAM.XViD-UNiQUE","uid":9077120,"size":1279124951,"categoryP":"video","categoryS":"movies","magnet":"?xt=urn:btih:877273685983cc4ddafff4893f005996702a692d&amp;dn=Carrie.2013.READNFO.CAM.XViD-UNiQUE&amp;tr=udp%3A%2F%2Ftracker.openbittorrent.com%3A80&amp;tr=udp%3A%2F%2Fopen.demonii.com%3A1337&amp;tr=udp%3A%2F%2Ftracker.coppersurfer.tk%3A6969&amp;tr=udp%3A%2F%2Fexodus.desync.com%3A6969","seeders":18,"leechers":0,"uploader":"Acesn8s","files":-1,"time":1382308354,"description":"Poster:\n &lt;a href=&quot;\nhttp://www.blendbureaux.com/wp-content/uploads/2013/04/Carrie-poster-2013-version3.jpg&quot; rel=&quot;nofollow&quot; target=&quot;_NEW&quot;&gt;\nhttp://www.blendbureaux.com/wp-content/uploads/2013/04/Carrie-poster-2013-version3.jpg&lt;/a&gt;\n\n----------------------------------------------------------------------------------\nFormat                                   : AVI\nFormat/Info                              : Audio Video Interleave\nFile size                                : 1.18 GiB\nDuration                                 : 1h 30mn\nOverall bit rate                         : 1 864 Kbps\nWriting application                      : VirtualDubMod 1.5.10.2 (build 2540/release)\nWriting library                          : VirtualDubMod build 2540/release\n----------------------------------------------------------------------------------\n\nVideo\nID                                       : 0\nFormat                                   : xvid\nCodec ID                                 : xvid\nDuration                                 : 1h 30mn\nBit rate                                 : 1 724 Kbps\nWidth                                    : 622 pixels\nHeight                                   : 282 pixels\nDisplay aspect ratio                     : 2.2:1\nFrame rate                               : 29.970 fps\nBits/(Pixel*Frame)                       : 0.328\nStream size                              : 1.09 GiB (93%)\n----------------------------------------------------------------------------------\n\nAudio\nID                                       : 1\nFormat                                   : MPEG Audio\nFormat version                           : Version 1\nFormat profile                           : Layer 3\nCodec ID                                 : 55\nCodec ID/Hint                            : MP3\nDuration                                 : 1h 30mn\nBit rate mode                            : Constant\nBit rate                                 : 128 Kbps\nChannel(s)                               : 2 channels\nSampling rate                            : 48.0 KHz\nCompression mode                         : Lossy\nStream size                              : 82.8 MiB (7%)\nAlignment                                : Aligned on interleaves\nInterleave, duration                     : 33 ms (1.00 video frame)\nInterleave, preload duration             : 504 ms\nWriting library                          : LAME3.98.4\n----------------------------------------------------------------------------------\n\nIMDb:\n &lt;a href=&quot;\nhttp://www.imdb.com/title/tt1939659/&quot; rel=&quot;nofollow&quot; target=&quot;_NEW&quot;&gt;\nhttp://www.imdb.com/title/tt1939659/&lt;/a&gt;\n\n\nSource Used  Carrie.2013.CAM.READ.NFO.x264.AAC-ByteSize SD / NoGRP  - Thanks\n\nSpliced the 2 cams together to make a complete as possible vid you may notice a slight overlap as couldnt keyframe exact spot but who cares lmao\n\nMovement as start and abit throughout but mainly at start .....Not bad not great enjoy dont we do things right round here laugh.gif\n\nScreen 4 from 2nd cam used ....Ar will be off that part nothing i can do ....\n\nStoryline\nA reimagining of the classic horror tale about Carrie White (Chlo? Grace Moretz), a shy girl outcast by her peers and sheltered by her deeply religious mother (Julianne Moore), who unleashes telekinetic terror on her small town after being pushed too far at her senior prom. Based on the best-selling novel by Stephen King, Carrie is directed by Kimberly Peirce with a screenplay by Lawrence D. Cohen and Roberto Aguirre-Sacasa.\n\n----------------------------------------------------------------------------------\nScreens\n &lt;a href=&quot;\nhttp://s24.postimg.org/j7axc0ddx/Carrie.png&quot; rel=&quot;nofollow&quot; target=&quot;_NEW&quot;&gt;\nhttp://s24.postimg.org/j7axc0ddx/Carrie.png&lt;/a&gt;\n &lt;a href=&quot;\nhttp://s24.postimg.org/roafmxi2t/carrie_2.png&quot; rel=&quot;nofollow&quot; target=&quot;_NEW&quot;&gt;\nhttp://s24.postimg.org/roafmxi2t/carrie_2.png&lt;/a&gt;\n &lt;a href=&quot;\nhttp://s24.postimg.org/utqfzebb9/carrie_3.png&quot; rel=&quot;nofollow&quot; target=&quot;_NEW&quot;&gt;\nhttp://s24.postimg.org/utqfzebb9/carrie_3.png&lt;/a&gt;\n &lt;a href=&quot;\nhttp://s24.postimg.org/wx0v72b45/carrie4.png&quot; rel=&quot;nofollow&quot; target=&quot;_NEW&quot;&gt;\nhttp://s24.postimg.org/wx0v72b45/carrie4.png&lt;/a&gt;","torrent":{"xt":"urn:btih:877273685983cc4ddafff4893f005996702a692d","amp;dn":"Carrie.2013.READNFO.CAM.XViD-UNiQUE","amp;tr":["udp%3A%2F%2Ftracker.openbittorrent.com%3A80","udp%3A%2F%2Fopen.demonii.com%3A1337","udp%3A%2F%2Ftracker.coppersurfer.tk%3A6969","udp%3A%2F%2Fexodus.desync.com%3A6969"],"infoHash":"877273685983cc4ddafff4893f005996702a692d","infoHashBuffer":{"type":"Buffer","data":[135,114,115,104,89,131,204,77,218,255,244,137,63,0,89,150,112,42,105,45]},"announce":[],"urlList":[]}}